<?xml version="1.0" encoding="UTF-8"?>
<!DOCTYPE svg PUBLIC "-//W3C//DTD SVG 1.1//EN" "http://www.w3.org/Graphics/SVG/1.1/DTD/svg11.dtd">
<svg version="1.2" width="102.52mm" height="101.47mm" viewBox="5119 3487 10252 10147" preserveAspectRatio="xMidYMid" fill-rule="evenodd" stroke-width="28.222" stroke-linejoin="round" xmlns="http://www.w3.org/2000/svg" xmlns:ooo="http://xml.openoffice.org/svg/export" xmlns:xlink="http://www.w3.org/1999/xlink" xmlns:presentation="http://sun.com/xmlns/staroffice/presentation" xmlns:smil="http://www.w3.org/2001/SMIL20/" xmlns:anim="urn:oasis:names:tc:opendocument:xmlns:animation:1.0" xml:space="preserve">
 <defs class="EmbeddedBulletChars">
  <g id="bullet-char-template-57356" transform="scale(0.00048828125,-0.00048828125)">
   <path d="M 580,1141 L 1163,571 580,0 -4,571 580,1141 Z"/>
  </g>
  <g id="bullet-char-template-57354" transform="scale(0.00048828125,-0.00048828125)">
   <path d="M 8,1128 L 1137,1128 1137,0 8,0 8,1128 Z"/>
  </g>
  <g id="bullet-char-template-10146" transform="scale(0.00048828125,-0.00048828125)">
   <path d="M 174,0 L 602,739 174,1481 1456,739 174,0 Z M 1358,739 L 309,1346 659,739 1358,739 Z"/>
  </g>
  <g id="bullet-char-template-10132" transform="scale(0.00048828125,-0.00048828125)">
   <path d="M 2015,739 L 1276,0 717,0 1260,543 174,543 174,936 1260,936 717,1481 1274,1481 2015,739 Z"/>
  </g>
  <g id="bullet-char-template-10007" transform="scale(0.00048828125,-0.00048828125)">
   <path d="M 0,-2 C -7,14 -16,27 -25,37 L 356,567 C 262,823 215,952 215,954 215,979 228,992 255,992 264,992 276,990 289,987 310,991 331,999 354,1012 L 381,999 492,748 772,1049 836,1024 860,1049 C 881,1039 901,1025 922,1006 886,937 835,863 770,784 769,783 710,716 594,584 L 774,223 C 774,196 753,168 711,139 L 727,119 C 717,90 699,76 672,76 641,76 570,178 457,381 L 164,-76 C 142,-110 111,-127 72,-127 30,-127 9,-110 8,-76 1,-67 -2,-52 -2,-32 -2,-23 -1,-13 0,-2 Z"/>
  </g>
  <g id="bullet-char-template-10004" transform="scale(0.00048828125,-0.00048828125)">
   <path d="M 285,-33 C 182,-33 111,30 74,156 52,228 41,333 41,471 41,549 55,616 82,672 116,743 169,778 240,778 293,778 328,747 346,684 L 369,508 C 377,444 397,411 428,410 L 1163,1116 C 1174,1127 1196,1133 1229,1133 1271,1133 1292,1118 1292,1087 L 1292,965 C 1292,929 1282,901 1262,881 L 442,47 C 390,-6 338,-33 285,-33 Z"/>
  </g>
  <g id="bullet-char-template-9679" transform="scale(0.00048828125,-0.00048828125)">
   <path d="M 813,0 C 632,0 489,54 383,161 276,268 223,411 223,592 223,773 276,916 383,1023 489,1130 632,1184 813,1184 992,1184 1136,1130 1245,1023 1353,916 1407,772 1407,592 1407,412 1353,268 1245,161 1136,54 992,0 813,0 Z"/>
  </g>
  <g id="bullet-char-template-8226" transform="scale(0.00048828125,-0.00048828125)">
   <path d="M 346,457 C 273,457 209,483 155,535 101,586 74,649 74,723 74,796 101,859 155,911 209,963 273,989 346,989 419,989 480,963 531,910 582,859 608,796 608,723 608,648 583,586 532,535 482,483 420,457 346,457 Z"/>
  </g>
  <g id="bullet-char-template-8211" transform="scale(0.00048828125,-0.00048828125)">
   <path d="M -4,459 L 1135,459 1135,606 -4,606 -4,459 Z"/>
  </g>
  <g id="bullet-char-template-61548" transform="scale(0.00048828125,-0.00048828125)">
   <path d="M 173,740 C 173,903 231,1043 346,1159 462,1274 601,1332 765,1332 928,1332 1067,1274 1183,1159 1299,1043 1357,903 1357,740 1357,577 1299,437 1183,322 1067,206 928,148 765,148 601,148 462,206 346,322 231,437 173,577 173,740 Z"/>
  </g>
 </defs>
 <g class="Page">
  <g class="com.sun.star.drawing.ClosedBezierShape">
   <g id="id3">
    <rect class="BoundingBox" stroke="none" fill="none" x="5119" y="3487" width="10252" height="10147"/>
    <path fill="rgb(160,0,35)" stroke="none" d="M 9534,3498 C 9506,3505 9361,3530 9217,3551 7393,3847 5799,5322 5287,7184 5118,7795 5068,8764 5178,9388 5368,10496 5883,11452 6709,12231 6889,12404 7114,12595 7210,12658 7305,12718 7382,12782 7382,12799 7382,12817 7263,12750 7118,12651 6850,12461 6377,12027 6113,11716 6010,11596 5989,11579 6042,11663 6180,11868 6853,12517 7143,12715 7954,13272 8959,13589 10014,13628 11226,13674 12211,13357 13216,12598 13495,12390 14080,11808 14267,11558 14553,11173 14899,10542 15050,10122 15354,9268 15459,8063 15287,7396 15156,6888 15068,6648 14902,6331 14680,5904 14444,5685 14595,6045 14673,6229 14638,6225 14504,6042 14373,5858 14313,5833 14348,5975 14369,6073 14369,6073 14260,5950 14193,5876 14165,5855 14190,5904 14207,5946 14225,6024 14225,6073 14225,6126 14288,6317 14366,6500 14489,6796 14496,6832 14437,6814 14387,6800 14366,6807 14366,6846 14366,6927 14331,6916 14218,6807 14165,6758 14116,6719 14108,6729 14098,6736 14105,6916 14123,7132 14154,7576 14123,8799 14077,8827 14063,8838 14048,8810 14048,8764 14048,8718 14034,8658 14017,8633 13967,8560 13932,8658 13787,9254 13646,9826 13533,10132 13336,10471 12779,11438 11851,12090 10680,12337 10380,12404 9615,12394 9270,12327 8462,12161 7859,11826 7263,11205 6779,10700 6543,10323 6331,9716 6035,8884 6042,7890 6342,6983 6458,6634 6617,6285 6755,6073 L 6825,5968 6737,6070 C 6490,6356 6155,7170 6053,7742 5979,8144 5979,8841 6053,9237 6098,9498 6275,10073 6377,10302 6398,10351 6395,10365 6356,10351 6275,10323 6010,9617 5933,9222 5830,8711 5859,8324 6060,7382 6240,6564 6829,5668 7548,5114 7841,4888 7887,4835 7640,5001 7368,5184 6776,5802 6571,6116 6469,6278 6374,6408 6360,6408 6303,6408 5936,7340 5936,7484 5936,7513 5919,7537 5901,7537 5859,7537 5869,7488 5996,7043 6144,6521 6370,6116 6779,5639 7234,5114 7922,4624 8497,4412 8642,4359 8751,4310 8744,4299 8716,4274 8233,4465 7954,4613 7682,4758 7598,4786 7718,4694 7841,4599 8307,4373 8592,4274 8744,4221 8875,4165 8882,4151 8899,4123 8642,4165 8532,4207 8480,4228 8349,4295 8197,4355 8046,4419 7763,4574 7573,4698 7386,4825 7224,4920 7217,4913 7196,4892 7548,4645 7834,4482 8120,4317 8148,4267 7869,4415 7735,4486 7703,4493 7686,4451 7668,4398 7767,4327 8141,4137 8240,4087 8307,4049 8289,4045 8233,4041 7742,4306 7488,4479 6652,5040 6116,5618 5682,6426 5587,6599 5520,6705 5531,6655 5573,6500 5901,5904 6109,5618 6409,5195 6924,4698 7354,4408 8127,3893 8829,3639 9795,3534 L 10221,3488 9905,3488 C 9732,3488 9562,3495 9534,3498 Z M 6698,5393 C 6377,5749 6204,6003 5964,6490 5848,6722 5746,6899 5735,6888 5700,6853 6091,6091 6285,5819 6479,5544 6889,5089 6917,5117 6924,5128 6825,5251 6698,5393 Z M 7111,11353 C 7234,11441 7277,11522 7277,11674 7277,11752 7248,11826 7192,11886 7026,12062 6815,12055 6617,11857 6412,11653 6472,11388 6748,11279 6857,11240 6980,11265 7111,11353 Z M 13209,11688 C 13311,11780 13294,12044 13174,12214 13047,12390 12958,12461 12923,12418 12835,12316 12532,11910 12532,11893 12532,11886 12616,11822 12715,11752 12923,11614 13100,11589 13209,11688 Z M 7651,11960 C 7813,12104 7820,12118 7778,12207 7753,12260 7707,12298 7668,12298 7608,12298 7605,12313 7629,12401 7665,12524 7647,12545 7517,12545 7421,12545 7418,12538 7418,12358 L 7418,12175 7347,12291 C 7277,12404 7273,12404 7188,12348 7139,12316 7100,12284 7100,12277 7100,12245 7428,11805 7453,11805 7467,11805 7559,11875 7651,11960 Z M 12232,11946 C 12232,11974 12204,12002 12172,12009 12126,12016 12108,11999 12108,11946 12108,11893 12126,11875 12172,11882 12204,11889 12232,11917 12232,11946 Z M 12532,12157 C 12588,12274 12637,12411 12637,12464 12634,12634 12454,12792 12267,12792 12154,12792 12034,12676 11921,12450 L 11833,12277 11936,12221 12034,12161 12147,12372 C 12225,12514 12281,12581 12327,12581 12443,12581 12443,12475 12327,12260 L 12214,12055 12313,12002 C 12366,11970 12412,11949 12415,11946 12422,11946 12472,12041 12532,12157 Z M 11999,12013 C 12055,12048 12020,12122 11946,12122 11918,12122 11897,12090 11897,12051 11897,11974 11921,11963 11999,12013 Z M 8430,12383 C 8437,12390 8420,12422 8395,12454 8356,12507 8331,12510 8275,12482 8211,12447 8194,12461 8109,12634 8021,12817 8010,12824 7929,12785 7823,12736 7820,12715 7919,12514 L 7996,12355 7919,12305 C 7859,12267 7852,12242 7880,12189 7912,12126 7926,12129 8169,12249 8310,12320 8427,12380 8430,12383 Z M 11738,12372 C 11756,12425 11745,12461 11706,12482 11622,12528 11639,12581 11738,12581 11858,12581 11946,12718 11900,12835 11865,12930 11703,13074 11632,13074 11547,13074 11533,12955 11611,12902 11710,12838 11703,12806 11590,12775 11364,12718 11339,12574 11526,12408 11674,12277 11706,12274 11738,12372 Z M 8688,12454 C 8808,12489 8850,12521 8857,12581 8868,12651 8861,12655 8762,12634 8642,12609 8607,12669 8719,12704 8825,12736 8772,12873 8667,12849 8621,12835 8582,12842 8582,12859 8582,12877 8614,12898 8652,12909 8734,12930 8751,13074 8670,13074 8578,13074 8335,12962 8335,12919 8335,12863 8501,12404 8518,12404 8525,12404 8599,12425 8688,12454 Z M 9220,12743 L 9383,12905 9407,12778 C 9432,12651 9464,12634 9573,12679 9622,12701 9622,12729 9562,12965 9527,13110 9492,13237 9481,13247 9471,13254 9383,13187 9287,13092 9122,12930 9111,12923 9111,13004 9111,13134 9062,13191 8973,13163 8935,13152 8899,13124 8899,13103 8899,13032 9016,12581 9037,12581 9047,12581 9129,12655 9220,12743 Z M 11068,12799 C 11107,13120 11011,13251 10740,13251 10563,13251 10496,13177 10450,12937 10408,12715 10422,12686 10560,12686 10648,12686 10662,12701 10662,12789 10662,12930 10733,13110 10786,13110 10853,13110 10877,13018 10853,12863 10824,12683 10853,12616 10958,12616 11036,12616 11047,12634 11068,12799 Z M 10221,12955 C 10313,13099 10383,13226 10376,13230 10295,13300 10207,13314 10169,13268 10109,13198 9898,13201 9859,13272 9831,13325 9820,13325 9735,13268 L 9644,13208 9820,12947 C 9915,12803 10010,12686 10025,12686 10042,12686 10130,12806 10221,12955 Z"/>
   </g>
  </g>
  <g class="com.sun.star.drawing.ClosedBezierShape">
   <g id="id4">
    <rect class="BoundingBox" stroke="none" fill="none" x="6712" y="11455" width="349" height="342"/>
    <path fill="rgb(160,0,35)" stroke="none" d="M 6804,11526 C 6691,11614 6681,11755 6786,11787 6952,11840 7132,11628 7030,11505 6970,11434 6917,11438 6804,11526 Z"/>
   </g>
  </g>
  <g class="com.sun.star.drawing.ClosedBezierShape">
   <g id="id5">
    <rect class="BoundingBox" stroke="none" fill="none" x="12833" y="11840" width="237" height="295"/>
    <path fill="rgb(160,0,35)" stroke="none" d="M 12835,11872 C 12814,11903 12980,12143 13018,12133 13061,12122 13085,11967 13054,11900 13022,11840 12867,11815 12835,11872 Z"/>
   </g>
  </g>
  <g class="com.sun.star.drawing.ClosedBezierShape">
   <g id="id6">
    <rect class="BoundingBox" stroke="none" fill="none" x="7457" y="12053" width="124" height="103"/>
    <path fill="rgb(160,0,35)" stroke="none" d="M 7471,12090 C 7435,12143 7474,12171 7541,12143 7573,12133 7587,12108 7577,12087 7548,12041 7499,12041 7471,12090 Z"/>
   </g>
  </g>
  <g class="com.sun.star.drawing.ClosedBezierShape">
   <g id="id7">
    <rect class="BoundingBox" stroke="none" fill="none" x="9974" y="12969" width="73" height="107"/>
    <path fill="rgb(160,0,35)" stroke="none" d="M 9979,13022 C 9968,13053 9978,13074 10010,13074 10041,13074 10053,13053 10042,13022 10028,12993 10017,12969 10010,12969 10002,12969 9993,12993 9979,13022 Z"/>
   </g>
  </g>
  <g class="com.sun.star.drawing.ClosedBezierShape">
   <g id="id8">
    <rect class="BoundingBox" stroke="none" fill="none" x="8342" y="3973" width="129" height="73"/>
    <path fill="rgb(160,0,35)" stroke="none" d="M 8370,4010 C 8342,4027 8335,4045 8353,4045 8374,4045 8413,4027 8441,4010 8469,3992 8480,3974 8458,3974 8441,3974 8398,3992 8370,4010 Z"/>
   </g>
  </g>
  <g class="com.sun.star.drawing.ClosedBezierShape">
   <g id="id9">
    <rect class="BoundingBox" stroke="none" fill="none" x="10346" y="4753" width="1028" height="1329"/>
    <path fill="rgb(0,0,0)" stroke="none" d="M 10673,4810 C 10299,5019 10232,5608 10546,5932 10704,6098 10860,6123 11054,6017 11463,5788 11480,5096 11089,4832 10944,4733 10824,4729 10673,4810 Z"/>
   </g>
  </g>
  <g class="com.sun.star.drawing.ClosedBezierShape">
   <g id="id10">
    <rect class="BoundingBox" stroke="none" fill="none" x="9584" y="4831" width="2909" height="1965"/>
    <path fill="rgb(160,0,35)" stroke="none" d="M 12465,4895 C 12451,5153 12017,5745 11664,5989 11244,6274 10715,6444 10454,6373 10373,6352 10256,6289 10194,6232 10088,6137 10081,6119 10081,5890 10081,5714 10099,5618 10145,5548 10239,5407 10201,5403 10039,5534 9718,5798 9527,6186 9601,6419 9774,6938 10708,6916 11505,6373 12101,5971 12546,5304 12486,4906 12472,4810 12472,4807 12465,4895 Z"/>
   </g>
  </g>
  <g class="com.sun.star.drawing.ClosedBezierShape">
   <g id="id11">
    <rect class="BoundingBox" stroke="none" fill="none" x="9260" y="6758" width="2034" height="2650"/>
    <path fill="rgb(0,0,0)" stroke="none" d="M 11050,6793 C 10990,6828 10574,6927 10369,6955 10256,6973 10207,7015 10028,7241 9548,7844 9340,8366 9270,9131 9256,9282 9259,9406 9273,9406 9291,9406 9358,9244 9421,9042 9594,8514 9795,8126 10014,7901 10183,7728 10214,7710 10334,7721 10433,7728 10479,7752 10510,7819 10563,7925 10567,8236 10517,8451 10500,8536 10489,8609 10496,8616 10503,8623 10606,8609 10729,8588 10934,8550 10955,8536 11036,8401 11255,8028 11343,7488 11262,7015 11219,6754 11184,6719 11050,6793 Z"/>
   </g>
  </g>
  <g class="com.sun.star.drawing.ClosedBezierShape">
   <g id="id12">
    <rect class="BoundingBox" stroke="none" fill="none" x="11270" y="7963" width="1934" height="2250"/>
    <path fill="rgb(0,0,0)" stroke="none" d="M 12761,7978 C 12743,7985 12637,8017 12532,8049 11861,8250 11357,8725 11276,9226 11244,9416 11343,9706 11484,9857 11625,10006 11854,10125 12112,10182 12320,10228 13078,10217 13160,10168 13188,10150 13202,10002 13202,9667 L 13202,9194 12867,9194 12532,9194 12532,9459 C 12532,9603 12528,9723 12521,9723 12514,9723 12429,9699 12327,9670 12101,9603 12003,9483 12003,9282 12003,8990 12320,8718 12814,8592 12944,8557 12987,8532 12976,8493 12966,8461 12930,8331 12899,8197 12867,8066 12831,7961 12817,7964 12807,7964 12782,7971 12761,7978 Z"/>
   </g>
  </g>
  <g class="com.sun.star.drawing.ClosedBezierShape">
   <g id="id13">
    <rect class="BoundingBox" stroke="none" fill="none" x="6842" y="8136" width="2185" height="2189"/>
    <path fill="rgb(0,0,0)" stroke="none" d="M 6850,8151 C 6843,8158 6839,8651 6846,9244 L 6857,10323 7213,10323 7569,10323 7548,9921 C 7534,9699 7538,9508 7552,9498 7569,9487 7753,9469 7961,9455 L 8338,9431 8331,9868 8328,10305 8670,10305 9016,10305 9019,9219 9026,8137 8681,8137 8335,8137 8335,8521 8335,8905 8116,8926 C 7993,8937 7816,8951 7718,8954 L 7541,8965 7555,8550 7566,8137 7217,8137 C 7023,8137 6857,8144 6850,8151 Z"/>
   </g>
  </g>
  <g class="com.sun.star.drawing.ClosedBezierShape">
   <g id="id14">
    <rect class="BoundingBox" stroke="none" fill="none" x="9476" y="8663" width="1784" height="2763"/>
    <path fill="rgb(0,0,0)" stroke="none" d="M 10535,8732 C 9834,8905 9379,9339 9495,9727 9555,9924 9686,10055 10032,10267 10271,10415 10327,10468 10327,10535 10327,10662 10145,10753 9848,10775 9704,10785 9605,10806 9605,10831 9605,10852 9626,10993 9647,11148 L 9693,11424 9883,11402 C 10359,11346 10884,11085 11085,10810 11406,10369 11283,10048 10687,9744 10429,9614 10345,9526 10401,9438 10443,9371 10637,9307 10838,9296 10944,9293 11043,9282 11054,9279 11068,9272 11054,9134 11029,8975 11001,8813 10980,8679 10980,8672 10980,8647 10757,8679 10535,8732 Z"/>
   </g>
  </g>
  <g class="com.sun.star.drawing.CustomShape">
   <g id="id15">
    <rect class="BoundingBox" stroke="none" fill="none" x="11600" y="4400" width="802" height="802"/>
    <path fill="rgb(160,0,35)" stroke="none" d="M 12401,4801 C 12401,4871 12382,4940 12347,5001 12312,5062 12262,5112 12201,5147 12140,5182 12071,5201 12001,5201 11930,5201 11861,5182 11800,5147 11739,5112 11689,5062 11654,5001 11619,4940 11600,4871 11600,4801 11600,4730 11619,4661 11654,4600 11689,4539 11739,4489 11800,4454 11861,4419 11930,4400 12001,4400 12071,4400 12140,4419 12201,4454 12262,4489 12312,4539 12347,4600 12382,4661 12401,4730 12401,4801 L 12401,4801 Z"/>
   </g>
  </g>
 </g>
</svg>